<?xml version="1.0" standalone="no"?>
<!DOCTYPE svg PUBLIC "-//W3C//DTD SVG 20010904//EN"
 "http://www.w3.org/TR/2001/REC-SVG-20010904/DTD/svg10.dtd">
<svg version="1.0" xmlns="http://www.w3.org/2000/svg"
 width="380.000000pt" height="380.000000pt" viewBox="0 0 380.000000 380.000000"
 preserveAspectRatio="xMidYMid meet">
<metadata>
Created by potrace 1.11, written by Peter Selinger 2001-2013
</metadata>
<g transform="translate(0.000000,380.000000) scale(0.100000,-0.100000)"
fill="#000000" stroke="none">
<path d="M2110 3496 c0 -2 8 -10 18 -17 15 -13 16 -12 3 4 -13 16 -21 21 -21
13z"/>
<path d="M1855 3481 c-3 -5 -2 -12 3 -15 5 -3 9 1 9 9 0 17 -3 19 -12 6z"/>
<path d="M1655 3460 c-3 -5 -1 -10 4 -10 6 0 11 5 11 10 0 6 -2 10 -4 10 -3 0
-8 -4 -11 -10z"/>
<path d="M1776 3462 c-7 -12 6 -27 34 -41 24 -11 23 -11 -3 9 -15 12 -25 26
-21 31 3 5 3 9 0 9 -3 0 -7 -4 -10 -8z"/>
<path d="M1950 3449 c0 -5 5 -7 10 -4 6 3 10 8 10 11 0 2 -4 4 -10 4 -5 0 -10
-5 -10 -11z"/>
<path d="M1985 3438 l-20 -21 23 12 c12 6 22 16 22 21 0 13 -2 12 -25 -12z"/>
<path d="M1751 3433 c7 -12 15 -20 18 -17 3 2 -3 12 -13 22 -17 16 -18 16 -5
-5z"/>
<path d="M1810 3445 c0 -7 30 -13 34 -7 3 4 -4 9 -15 9 -10 1 -19 0 -19 -2z"/>
<path d="M1880 3435 c-7 -9 -8 -15 -2 -15 5 0 12 7 16 15 3 8 4 15 2 15 -2 0
-9 -7 -16 -15z"/>
<path d="M2065 3435 c11 -8 26 -23 33 -32 10 -14 12 -14 12 -2 0 8 -15 23 -32
33 -24 13 -28 13 -13 1z"/>
<path d="M2216 3433 c-6 -14 -5 -15 5 -6 7 7 10 15 7 18 -3 3 -9 -2 -12 -12z"/>
<path d="M2157 3433 c-10 -10 -8 -23 4 -23 5 0 7 5 3 12 -5 8 -2 9 10 5 10 -4
15 -3 11 3 -7 12 -19 13 -28 3z"/>
<path d="M1495 3420 c-3 -5 -1 -10 4 -10 6 0 11 5 11 10 0 6 -2 10 -4 10 -3 0
-8 -4 -11 -10z"/>
<path d="M1585 3420 c-3 -6 1 -7 9 -4 18 7 21 14 7 14 -6 0 -13 -4 -16 -10z"/>
<path d="M1708 3402 c3 -17 1 -23 -7 -18 -6 4 -9 11 -7 15 3 4 -2 8 -10 8 -8
0 -13 -6 -10 -14 7 -16 -6 -17 -23 0 -10 8 -12 8 -7 0 3 -6 1 -15 -5 -19 -8
-4 -9 -3 -5 4 4 7 2 12 -3 12 -6 0 -11 -4 -11 -8 0 -5 -6 -9 -12 -10 -32 -2
-65 -9 -73 -14 -11 -6 -53 -11 -70 -8 -5 1 -1 5 9 9 19 7 19 8 -1 13 -17 5
-21 2 -18 -19 1 -14 -2 -22 -9 -20 -6 2 -10 13 -9 23 1 18 1 18 -11 2 -7 -10
-16 -15 -20 -11 -4 4 -9 -3 -13 -15 -3 -12 -9 -19 -14 -16 -5 3 -6 10 -3 16 4
7 2 8 -4 4 -6 -4 -9 -13 -6 -20 6 -15 -22 -30 -37 -20 -12 7 -7 48 9 67 10 12
10 17 1 23 -7 4 -9 3 -6 -3 4 -6 0 -16 -7 -22 -9 -7 -13 -26 -11 -46 3 -34 3
-34 -21 -18 -15 9 -24 11 -24 4 0 -6 7 -11 15 -11 8 0 15 -4 15 -9 0 -11 -25
-21 -51 -21 -13 0 -18 -4 -13 -12 4 -6 3 -8 -4 -4 -6 3 -13 2 -17 -4 -4 -6
-10 -8 -15 -5 -4 3 -11 -2 -14 -11 -3 -8 -10 -13 -15 -10 -4 3 -18 -3 -30 -13
-12 -10 -35 -24 -51 -31 -16 -7 -28 -15 -25 -19 2 -4 -13 -16 -33 -26 -20 -11
-40 -25 -45 -32 -4 -7 -15 -9 -24 -6 -12 5 -14 3 -8 -7 6 -10 4 -12 -8 -7 -19
7 -33 -8 -17 -18 15 -9 -20 -34 -37 -28 -7 3 -11 9 -8 13 3 4 -3 14 -13 21
-15 13 -16 12 -3 -3 11 -15 11 -18 0 -18 -10 -1 -9 -4 3 -11 10 -5 15 -16 11
-25 -5 -13 -7 -13 -14 -2 -7 11 -9 11 -9 -1 0 -7 -11 -26 -24 -42 -23 -27 -25
-27 -40 -10 -9 10 -13 21 -9 26 5 4 3 5 -4 2 -14 -9 -9 -43 6 -40 15 4 13 -8
-3 -29 -18 -24 -25 -22 -19 5 4 18 3 19 -6 7 -6 -8 -8 -23 -5 -32 6 -20 -12
-25 -19 -5 -2 6 -3 0 -1 -15 3 -22 0 -26 -13 -21 -11 4 -14 3 -9 -5 8 -14 -61
-108 -76 -104 -6 2 -8 -4 -5 -12 9 -23 -14 -31 -30 -11 -7 11 -13 15 -13 10 0
-5 7 -16 16 -26 14 -16 14 -19 -6 -39 -11 -11 -18 -25 -15 -30 4 -6 2 -10 -3
-10 -6 0 -13 -11 -16 -25 -4 -14 -11 -25 -17 -25 -6 0 -7 -5 -3 -12 5 -8 2 -9
-11 -4 -15 5 -16 4 -5 -9 10 -12 9 -15 -6 -15 -16 0 -17 -2 -4 -10 13 -8 13
-10 -2 -10 -9 0 -20 -5 -24 -12 -5 -8 -2 -9 9 -5 20 8 22 -6 4 -25 -8 -7 -12
-18 -10 -24 2 -6 -3 -17 -11 -23 -8 -7 -12 -19 -9 -27 3 -8 -1 -14 -8 -14 -12
0 -12 -2 0 -9 9 -6 10 -11 2 -15 -6 -4 -11 -16 -11 -27 0 -10 -5 -19 -11 -19
-5 0 -7 5 -4 10 3 6 2 10 -4 10 -5 0 -9 -9 -8 -19 0 -11 4 -18 8 -15 4 2 5 -5
2 -15 -3 -11 -10 -18 -17 -15 -6 2 -12 -5 -13 -16 -1 -11 3 -20 8 -20 6 0 7 5
4 10 -3 6 -1 10 5 10 7 0 9 -8 4 -22 -4 -13 -7 -28 -7 -35 0 -7 -4 -10 -8 -8
-4 3 -6 -11 -4 -30 4 -39 -4 -77 -14 -71 -4 3 -13 0 -21 -6 -12 -8 -12 -9 2
-4 10 3 20 1 23 -4 6 -9 -9 -15 -29 -11 -9 2 12 -29 28 -40 4 -4 3 -9 -2 -13
-6 -3 -13 -2 -17 4 -3 5 -11 10 -18 10 -6 0 -2 -6 9 -14 17 -13 19 -27 19
-123 1 -59 5 -114 9 -122 6 -10 5 -12 -2 -7 -7 4 -12 2 -12 -3 0 -6 5 -11 10
-11 6 0 10 -7 10 -15 0 -18 -17 -20 -22 -3 -3 8 -9 8 -24 -1 -10 -7 -12 -10
-4 -8 26 8 49 -17 60 -68 6 -26 8 -50 5 -53 -3 -3 -5 2 -5 11 0 9 -4 18 -9 21
-6 4 -6 -5 -2 -21 5 -16 13 -27 19 -26 5 1 9 -5 7 -15 -2 -9 -4 -19 -4 -22 -1
-3 -10 9 -21 25 -11 17 -20 26 -20 20 1 -16 30 -50 43 -50 7 0 12 -10 11 -23
0 -12 4 -22 9 -22 5 0 7 -6 5 -12 -3 -7 1 -23 8 -36 7 -14 10 -31 7 -40 -4
-10 -2 -13 6 -8 6 4 10 4 9 -1 -1 -4 3 -18 10 -31 7 -12 11 -26 8 -31 -3 -5 1
-14 9 -21 17 -14 20 -30 4 -30 -5 0 -7 4 -4 10 4 6 -1 7 -12 3 -15 -6 -13 -8
10 -18 21 -8 24 -14 15 -23 -9 -9 -15 -7 -25 6 -13 15 -13 14 -3 -6 6 -12 8
-28 5 -35 -3 -6 2 -2 11 10 20 28 34 29 34 3 0 -11 6 -20 13 -20 8 0 7 -4 -3
-10 -13 -8 -12 -10 3 -10 11 0 23 -15 33 -40 9 -22 20 -40 25 -40 5 0 9 -6 9
-14 0 -7 7 -19 15 -26 9 -7 13 -15 10 -18 -2 -3 6 -15 19 -27 16 -15 21 -27
15 -37 -5 -10 -4 -15 6 -15 8 0 11 5 8 10 -4 6 -1 7 7 2 10 -6 9 -11 -6 -23
-18 -14 -18 -14 2 -8 17 5 30 -4 65 -46 24 -29 48 -56 54 -60 6 -5 5 -12 -3
-20 -9 -9 -12 -9 -12 0 0 7 -5 12 -11 12 -5 0 -8 -4 -5 -9 4 -5 0 -12 -6 -15
-7 -2 -3 -4 9 -2 12 1 26 5 29 9 13 12 21 8 70 -41 27 -26 66 -59 87 -72 20
-14 35 -30 33 -37 -3 -8 1 -10 11 -6 12 5 14 3 8 -6 -5 -10 -2 -11 14 -6 13 4
21 2 21 -5 0 -6 -4 -9 -9 -6 -5 3 -15 -2 -22 -12 -8 -11 -9 -13 -1 -6 14 12
72 6 72 -8 0 -5 -4 -6 -10 -3 -6 3 -7 -1 -3 -10 4 -13 8 -14 14 -4 6 10 20 6
61 -16 29 -16 59 -36 66 -44 8 -9 10 -10 7 -3 -6 11 -3 12 15 2 14 -7 20 -17
16 -28 -5 -13 -2 -12 9 2 8 11 15 14 15 8 0 -7 11 -12 25 -12 14 0 25 -5 25
-10 0 -6 3 -9 8 -9 19 3 25 -2 12 -11 -9 -6 -10 -10 -3 -10 6 0 15 4 18 10 4
6 14 5 28 -2 50 -26 58 -28 67 -23 6 4 10 -1 10 -9 0 -9 5 -16 11 -16 5 0 7 5
4 10 -3 6 -2 10 3 10 5 0 14 -10 21 -22 11 -23 11 -23 5 2 -5 20 -4 23 7 12 7
-6 25 -12 39 -12 31 0 70 -35 48 -43 -10 -4 -10 -6 0 -6 6 -1 21 8 32 19 10
10 22 15 25 11 3 -5 14 -7 25 -4 11 3 20 1 20 -5 0 -18 29 -22 62 -8 46 19 64
11 44 -18 -12 -19 -12 -23 0 -23 8 0 12 2 9 5 -2 3 0 13 5 22 8 15 22 18 85
16 41 -1 75 1 75 5 0 9 42 5 59 -5 10 -6 12 -5 7 2 -4 7 -3 12 2 12 5 0 12 -9
15 -19 3 -14 11 -18 26 -14 16 4 20 1 16 -16 -2 -11 0 -23 4 -25 4 -3 7 7 6
22 -1 21 -6 27 -23 26 -20 0 -33 25 -14 27 4 0 18 2 31 5 14 2 33 -3 45 -13
17 -15 18 -15 8 -1 -8 10 -9 18 -3 22 12 8 33 -28 23 -39 -4 -5 -1 -5 6 -1 9
5 9 13 2 26 -7 13 -7 21 0 25 5 3 10 -1 10 -9 0 -9 2 -16 5 -16 13 0 55 24 55
32 0 5 5 6 10 3 6 -3 10 -1 10 5 0 6 4 9 9 5 5 -3 12 -1 16 5 4 6 10 8 15 5 5
-3 11 -1 15 5 4 6 11 8 16 5 5 -4 9 -1 9 4 0 6 5 11 10 11 6 0 9 -3 9 -7 -3
-20 2 -33 12 -33 8 0 8 4 0 14 -9 11 -6 17 14 30 14 9 25 14 25 11 0 -3 9 -1
20 5 16 9 22 8 26 -5 3 -8 11 -15 16 -15 6 0 5 7 -3 16 -10 13 -10 17 1 24 8
5 18 6 22 4 4 -3 8 -2 8 3 0 12 49 32 55 23 3 -5 -1 -10 -7 -13 -7 -2 -10 -8
-5 -12 4 -5 13 0 21 10 13 18 14 18 24 -1 6 -10 12 -14 12 -8 0 16 -25 35 -35
26 -4 -4 -6 0 -3 8 3 8 13 14 23 12 11 -2 14 1 10 8 -6 9 -2 9 13 1 15 -8 23
-8 28 1 4 6 3 8 -4 4 -6 -3 -13 -2 -16 3 -9 14 20 21 33 8 9 -9 11 -8 6 4 -3
9 1 21 8 28 12 9 16 8 21 -5 5 -12 2 -15 -11 -10 -14 6 -15 4 -6 -5 15 -16 32
-3 26 20 -3 10 1 22 8 26 8 5 10 4 5 -3 -4 -7 -2 -12 3 -12 6 0 11 7 11 15 0
8 5 15 11 15 5 0 7 -5 3 -12 -4 -7 -3 -8 5 -4 6 4 9 11 6 16 -3 5 6 17 21 27
15 10 37 29 50 41 13 14 28 21 35 16 7 -4 9 -3 5 4 -3 6 5 19 19 30 13 11 21
22 17 26 -3 4 1 4 11 0 13 -4 17 -1 17 15 0 12 6 21 13 21 7 0 18 9 25 20 9
14 20 19 37 16 14 -3 28 0 31 6 5 7 2 8 -6 3 -10 -6 -12 -4 -7 8 3 10 2 17 -3
17 -6 0 -10 -7 -10 -16 0 -8 -5 -12 -11 -8 -7 4 0 17 17 36 26 27 30 28 41 12
7 -10 13 -13 13 -8 0 6 -5 15 -10 20 -12 12 -2 47 11 39 4 -3 6 -13 3 -23 -5
-14 -4 -14 4 -3 6 8 8 20 5 28 -3 8 0 13 7 11 7 -2 15 4 17 12 4 12 3 12 -5 1
-6 -8 -12 -9 -16 -3 -3 5 1 13 10 16 8 3 12 12 9 18 -4 7 1 4 10 -7 16 -20 16
-19 11 5 -4 14 -2 31 3 39 8 13 12 13 27 0 15 -12 17 -12 9 0 -6 11 -4 13 9 8
11 -4 15 -3 11 4 -4 6 -14 8 -22 5 -11 -5 -13 -2 -8 11 4 10 10 26 12 35 4 15
9 16 27 6 18 -10 19 -9 9 3 -15 18 -12 37 10 69 9 13 17 31 17 40 1 16 30 60
30 44 0 -5 10 -15 23 -23 l22 -14 -20 24 c-11 13 -23 26 -27 29 -4 4 -1 16 8
29 15 21 17 21 30 4 13 -16 13 -14 1 12 -11 24 -12 37 -3 63 6 18 14 30 18 27
4 -4 4 3 1 16 -4 15 -3 20 5 15 7 -4 12 -2 12 3 0 6 -6 11 -12 11 -9 0 -8 3 2
10 9 6 17 5 23 -3 6 -8 7 -7 4 3 -2 8 -10 14 -17 12 -7 -2 -9 4 -5 17 5 18 15
72 17 99 1 12 12 16 36 13 6 -1 12 3 12 8 0 5 -12 7 -27 5 -24 -4 -26 -3 -12
8 9 7 19 21 22 31 9 25 -2 21 -13 -5 -8 -22 -9 -22 -7 4 1 16 8 29 19 31 10 3
18 11 17 19 0 10 -2 10 -6 1 -2 -7 -9 -13 -14 -13 -4 0 -5 7 -2 17 4 9 2 14
-3 10 -5 -3 -10 3 -10 13 0 10 4 16 8 14 4 -2 6 14 4 36 -2 29 0 40 9 36 6 -2
12 2 12 10 0 8 -6 13 -13 10 -19 -7 -24 19 -8 42 11 16 11 21 1 25 -8 3 -6 9
7 19 22 17 13 40 -12 31 -14 -5 -15 -3 -4 8 14 16 16 33 2 24 -5 -3 -10 -1
-10 4 0 6 5 11 10 11 6 0 10 5 10 11 0 5 -6 7 -12 3 -9 -5 -8 -2 1 9 12 15 11
20 -7 40 -24 25 -13 50 17 40 13 -4 14 -3 1 5 -8 6 -18 8 -22 6 -9 -6 -15 8
-22 48 -3 15 -8 32 -11 38 -4 6 -2 16 3 23 11 15 12 48 0 41 -10 -6 -11 10 -1
19 3 4 11 3 17 -3 8 -6 12 -3 12 8 0 11 -9 18 -25 19 -14 0 -19 -2 -12 -6 9
-6 7 -12 -6 -22 -10 -7 -15 -10 -11 -5 4 4 3 19 -3 32 -7 19 -5 26 6 30 8 4
15 11 15 17 0 7 -4 7 -12 -1 -7 -7 -15 -12 -19 -12 -13 0 -19 32 -9 50 7 13 7
21 0 25 -6 4 -7 11 -4 17 4 7 2 8 -5 4 -9 -6 -9 -11 -1 -21 6 -7 7 -16 2 -19
-4 -3 -14 11 -21 30 -10 29 -10 38 1 52 12 15 11 16 -4 4 -15 -12 -19 -10 -35
22 -16 35 -16 36 5 59 12 13 22 27 22 31 0 5 -9 -3 -21 -18 -11 -14 -25 -26
-31 -26 -6 0 -6 6 2 15 7 8 9 15 4 16 -5 0 0 5 11 10 l20 9 -20 -3 c-11 -2
-19 -9 -17 -18 4 -18 -15 -1 -32 29 -6 11 -31 48 -55 82 -34 50 -41 64 -30 72
10 6 7 7 -8 3 -13 -3 -23 -3 -23 2 -1 16 -151 176 -182 194 -10 5 -18 16 -18
24 0 8 -5 15 -11 15 -5 0 -7 -5 -3 -12 4 -7 3 -8 -5 -4 -6 4 -9 12 -5 17 3 6
-3 13 -15 16 -12 3 -21 9 -21 14 0 5 -6 9 -14 9 -8 0 -17 7 -20 16 -3 8 -10
12 -16 9 -9 -6 -14 8 -11 28 2 12 -17 8 -22 -5 -4 -10 -6 -10 -6 0 -1 6 -8 12
-16 12 -9 0 -24 13 -33 30 -9 16 -21 30 -25 30 -5 0 -5 6 -1 13 6 9 4 9 -6 0
-12 -11 -11 -15 6 -27 10 -8 16 -18 11 -22 -4 -4 -7 -2 -7 4 0 7 -6 12 -14 12
-8 0 -19 12 -25 28 -8 18 -10 20 -7 5 3 -16 0 -20 -11 -16 -8 3 -12 12 -8 22
4 11 3 13 -4 5 -8 -7 -31 -1 -78 22 -37 18 -70 31 -73 29 -4 -3 -16 2 -26 10
-10 8 -27 15 -36 15 -18 0 -22 10 -19 40 2 13 0 13 -8 1 -5 -8 -7 -21 -4 -30
4 -12 3 -13 -5 -3 -5 8 -12 13 -16 13 -18 -3 -18 0 0 15 16 13 14 13 -9 -1
-29 -17 -54 -12 -27 5 8 5 11 12 6 17 -4 4 -12 0 -17 -9 -7 -12 -18 -16 -37
-12 -15 3 -35 6 -44 8 -10 1 -20 5 -24 8 -3 4 -12 4 -19 2 -9 -4 -13 1 -11 13
2 10 1 13 -1 6 -7 -19 -31 -23 -43 -7 -7 8 -18 14 -24 14 -7 0 -6 -4 2 -9 8
-5 -4 -8 -31 -7 -36 1 -43 4 -35 14 9 11 13 11 19 0 7 -11 9 -11 9 0 0 7 5 10
10 7 6 -3 10 -1 10 4 0 13 -27 10 -57 -7 -18 -10 -23 -9 -31 4 -8 15 -10 15
-15 0 -4 -9 -11 -16 -17 -16 -6 0 -8 5 -4 12 4 6 3 8 -4 4 -5 -3 -12 -3 -15 1
-2 5 -3 3 -1 -3 1 -6 -11 -11 -26 -11 -21 0 -27 4 -23 16 4 10 0 9 -10 -4 -8
-11 -19 -17 -23 -13 -4 4 -14 2 -22 -5 -13 -9 -14 -9 -8 1 4 6 3 12 -3 12 -5
0 -13 -5 -17 -12 -5 -7 -11 -5 -20 7 -8 10 -22 19 -32 20 -15 1 -18 -4 -14
-23z m28 -9 c-10 -10 -19 5 -10 18 6 11 8 11 12 0 2 -7 1 -15 -2 -18z m-306
-65 c0 -4 -7 -8 -15 -8 -8 0 -15 4 -15 8 0 5 7 9 15 9 8 0 15 -4 15 -9z m1925
-1009 c11 -17 -1 -21 -15 -4 -8 9 -8 15 -2 15 6 0 14 -5 17 -11z m45 -209 c0
-5 -2 -10 -4 -10 -3 0 -8 5 -11 10 -3 6 -1 10 4 10 6 0 11 -4 11 -10z m20
-100 c0 -5 -5 -10 -11 -10 -5 0 -7 5 -4 10 3 6 8 10 11 10 2 0 4 -4 4 -10z
m-1140 -1565 c0 -2 -9 -9 -20 -15 -12 -6 -20 -7 -20 -1 0 5 8 12 18 14 9 3 18
5 20 6 1 0 2 -1 2 -4z m-623 -30 c0 -17 -13 -20 -21 -6 -4 5 0 12 6 14 7 3 13
6 14 6 0 1 1 -6 1 -14z m113 -17 c0 -4 -4 -8 -9 -8 -6 0 -12 4 -15 8 -3 5 1 9
9 9 8 0 15 -4 15 -9z"/>
<path d="M2240 3420 c-9 -6 -10 -10 -3 -10 6 0 15 5 18 10 8 12 4 12 -15 0z"/>
<path d="M2275 3421 c-3 -5 -2 -12 3 -15 5 -3 9 1 9 9 0 17 -3 19 -12 6z"/>
<path d="M2335 3420 c-3 -5 -1 -10 4 -10 6 0 11 5 11 10 0 6 -2 10 -4 10 -3 0
-8 -4 -11 -10z"/>
<path d="M1596 3395 c-11 -8 -16 -15 -10 -15 5 0 18 7 28 15 11 8 16 15 10 15
-5 0 -18 -7 -28 -15z"/>
<path d="M2175 3399 c-4 -6 -5 -12 -2 -15 2 -3 7 2 10 11 7 17 1 20 -8 4z"/>
<path d="M2203 3395 c-10 -11 -9 -13 6 -12 11 1 17 7 14 14 -6 16 -5 16 -20
-2z"/>
<path d="M1495 3391 c-3 -6 3 -15 14 -21 12 -6 22 -6 26 0 3 5 13 7 23 4 14
-5 15 -4 2 5 -9 6 -19 6 -24 1 -11 -11 -38 -1 -30 11 3 5 3 9 0 9 -3 0 -7 -4
-11 -9z"/>
<path d="M1405 3380 c-3 -6 1 -7 9 -4 18 7 21 14 7 14 -6 0 -13 -4 -16 -10z"/>
<path d="M2406 3382 c-3 -5 1 -9 9 -9 8 0 12 4 9 9 -3 4 -7 8 -9 8 -2 0 -6 -4
-9 -8z"/>
<path d="M1356 3353 c-6 -14 -5 -15 5 -6 7 7 10 15 7 18 -3 3 -9 -2 -12 -12z"/>
<path d="M2386 3356 c2 -6 13 -12 24 -12 23 0 17 12 -9 19 -12 3 -18 0 -15 -7z"/>
<path d="M1280 3340 c-9 -6 -10 -10 -3 -10 6 0 15 5 18 10 8 12 4 12 -15 0z"/>
<path d="M2437 3336 c-4 -10 -13 -13 -24 -10 -15 5 -16 4 -3 -5 11 -7 19 -6
29 4 8 8 12 17 9 20 -3 3 -8 -1 -11 -9z"/>
<path d="M2484 3335 c-3 -8 -4 -20 -2 -27 3 -7 7 -1 10 15 6 29 1 36 -8 12z"/>
<path d="M1215 3321 c-3 -5 -2 -12 3 -15 5 -3 9 1 9 9 0 17 -3 19 -12 6z"/>
<path d="M1336 3315 c-3 -8 -1 -15 4 -15 6 0 10 7 10 15 0 8 -2 15 -4 15 -2 0
-6 -7 -10 -15z"/>
<path d="M2455 3321 c-3 -5 -2 -12 3 -15 5 -3 9 1 9 9 0 17 -3 19 -12 6z"/>
<path d="M1156 3287 c3 -10 9 -15 12 -12 3 3 0 11 -7 18 -10 9 -11 8 -5 -6z"/>
<path d="M1250 3285 c0 -8 4 -15 10 -15 5 0 7 7 4 15 -4 8 -8 15 -10 15 -2 0
-4 -7 -4 -15z"/>
<path d="M2515 3288 c11 -6 28 -18 38 -26 9 -8 17 -11 17 -6 0 10 -52 44 -67
44 -4 0 1 -6 12 -12z"/>
<path d="M2576 3287 c5 -15 54 -19 54 -4 0 6 -3 8 -6 4 -3 -3 -17 -2 -30 3
-17 7 -22 6 -18 -3z"/>
<path d="M1215 3270 c-10 -11 -14 -20 -9 -20 5 0 15 9 22 20 7 11 11 20 9 20
-2 0 -12 -9 -22 -20z"/>
<path d="M2686 3258 c3 -5 10 -6 15 -3 13 9 11 12 -6 12 -8 0 -12 -4 -9 -9z"/>
<path d="M1146 3233 c-6 -14 -5 -15 5 -6 7 7 10 15 7 18 -3 3 -9 -2 -12 -12z"/>
<path d="M2715 3231 c-3 -5 -2 -12 3 -15 5 -3 9 1 9 9 0 17 -3 19 -12 6z"/>
<path d="M1113 3208 c-2 -18 0 -20 7 -8 12 18 13 30 2 30 -4 0 -9 -10 -9 -22z"/>
<path d="M2686 3221 c-7 -11 3 -41 13 -41 4 0 8 7 8 15 0 8 -5 11 -10 8 -6 -4
-8 0 -4 10 7 18 2 23 -7 8z"/>
<path d="M994 3196 c1 -8 5 -18 8 -22 4 -3 5 1 4 10 -1 8 -5 18 -8 22 -4 3 -5
-1 -4 -10z"/>
<path d="M1070 3200 c0 -6 7 -10 15 -10 8 0 15 2 15 4 0 2 -7 6 -15 10 -8 3
-15 1 -15 -4z"/>
<path d="M1023 3178 c-4 -7 -1 -8 7 -3 9 5 10 2 5 -14 -4 -12 -2 -21 4 -21 6
0 10 3 10 8 -4 21 2 32 14 26 6 -4 8 -3 4 1 -12 13 -36 15 -44 3z"/>
<path d="M2756 3178 c3 -4 11 -5 19 -1 21 7 19 12 -4 10 -11 0 -18 -5 -15 -9z"/>
<path d="M976 3162 c-3 -5 1 -9 9 -9 8 0 12 4 9 9 -3 4 -7 8 -9 8 -2 0 -6 -4
-9 -8z"/>
<path d="M2770 3160 c-9 -6 -10 -10 -3 -10 6 0 15 5 18 10 8 12 4 12 -15 0z"/>
<path d="M1010 3139 c0 -6 -8 -9 -18 -7 -13 4 -18 -1 -20 -16 0 -11 2 -16 6
-10 4 6 15 13 25 17 15 6 25 27 12 27 -3 0 -5 -5 -5 -11z"/>
<path d="M2790 3141 c0 -6 4 -12 8 -15 5 -3 9 1 9 9 0 8 -4 15 -9 15 -4 0 -8
-4 -8 -9z"/>
<path d="M937 3134 c-3 -3 -3 -13 1 -22 5 -15 4 -16 -14 -2 -18 14 -18 14 -5
-2 16 -21 30 -15 28 12 -1 22 -1 22 -10 14z"/>
<path d="M2830 3120 c-13 -8 -12 -10 3 -10 9 0 17 5 17 10 0 12 -1 12 -20 0z"/>
<path d="M2890 3120 c0 -5 5 -10 11 -10 5 0 7 5 4 10 -3 6 -8 10 -11 10 -2 0
-4 -4 -4 -10z"/>
<path d="M2854 3098 c-4 -7 -4 -10 1 -6 4 4 14 0 21 -10 7 -9 14 -12 14 -6 0
6 -6 17 -14 23 -11 9 -16 9 -22 -1z"/>
<path d="M2935 3079 c-3 -4 2 -6 10 -5 21 3 28 13 10 13 -9 0 -18 -4 -20 -8z"/>
<path d="M899 3057 c6 -8 7 -18 3 -22 -4 -5 -2 -5 5 -1 14 8 6 36 -9 36 -7 0
-6 -5 1 -13z"/>
<path d="M2889 3053 c-13 -16 -12 -17 4 -4 14 11 17 11 17 -1 0 -8 7 -23 15
-34 14 -17 14 -17 3 11 -17 44 -23 48 -39 28z"/>
<path d="M839 3048 c-1 -7 -1 -23 -1 -36 1 -15 -3 -20 -11 -15 -18 11 -36 12
-42 3 -3 -5 4 -7 15 -5 11 2 24 -3 30 -13 10 -18 11 -16 15 41 2 33 -3 54 -6
25z"/>
<path d="M2955 3051 c-3 -5 -2 -12 3 -15 5 -3 9 1 9 9 0 17 -3 19 -12 6z"/>
<path d="M3006 3022 c-3 -5 1 -9 9 -9 8 0 12 4 9 9 -3 4 -7 8 -9 8 -2 0 -6 -4
-9 -8z"/>
<path d="M2970 3006 c0 -2 12 -12 28 -21 l27 -18 -19 21 c-17 20 -36 29 -36
18z"/>
<path d="M2955 2980 c3 -5 8 -10 11 -10 2 0 4 5 4 10 0 6 -5 10 -11 10 -5 0
-7 -4 -4 -10z"/>
<path d="M3033 2965 c0 -8 4 -12 9 -9 5 3 6 10 3 15 -9 13 -12 11 -12 -6z"/>
<path d="M805 2960 c3 -5 8 -10 11 -10 2 0 4 5 4 10 0 6 -5 10 -11 10 -5 0 -7
-4 -4 -10z"/>
<path d="M3045 2939 c-4 -6 -5 -12 -2 -15 2 -3 7 2 10 11 7 17 1 20 -8 4z"/>
<path d="M3070 2936 c0 -2 8 -10 18 -17 15 -13 16 -12 3 4 -13 16 -21 21 -21
13z"/>
<path d="M670 2919 c0 -5 5 -7 10 -4 6 3 10 8 10 11 0 2 -4 4 -10 4 -5 0 -10
-5 -10 -11z"/>
<path d="M706 2922 c-3 -5 1 -9 9 -9 8 0 12 4 9 9 -3 4 -7 8 -9 8 -2 0 -6 -4
-9 -8z"/>
<path d="M3025 2906 c9 -14 28 -32 42 -41 21 -14 27 -15 34 -4 14 22 10 35 -3
16 -12 -16 -15 -15 -40 8 -16 14 -28 30 -28 35 0 6 -5 10 -10 10 -6 0 -3 -11
5 -24z"/>
<path d="M3070 2900 c0 -5 5 -10 11 -10 5 0 7 5 4 10 -3 6 -8 10 -11 10 -2 0
-4 -4 -4 -10z"/>
<path d="M684 2878 c-13 -16 -14 -19 -2 -10 13 10 17 10 21 0 3 -7 4 -3 4 10
-1 12 -2 22 -3 22 0 0 -9 -10 -20 -22z"/>
<path d="M690 2835 c0 -8 4 -15 10 -15 5 0 7 7 4 15 -4 8 -8 15 -10 15 -2 0
-4 -7 -4 -15z"/>
<path d="M615 2820 c3 -5 8 -10 11 -10 2 0 4 5 4 10 0 6 -5 10 -11 10 -5 0 -7
-4 -4 -10z"/>
<path d="M673 2819 c6 -18 -20 -62 -32 -55 -4 3 -13 0 -21 -5 -12 -7 -11 -8 5
-6 42 6 71 42 53 68 -8 12 -9 11 -5 -2z"/>
<path d="M3117 2823 c-10 -10 -8 -23 4 -23 5 0 8 4 5 9 -4 5 0 12 6 14 7 3 8
6 2 6 -6 1 -14 -2 -17 -6z"/>
<path d="M3152 2822 c3 -16 -15 -41 -25 -35 -6 4 -7 1 -2 -7 6 -10 13 -6 27
14 11 14 25 23 31 19 7 -3 8 -2 4 2 -9 11 -37 16 -35 7z"/>
<path d="M645 2799 c-4 -6 -5 -12 -2 -15 2 -3 7 2 10 11 7 17 1 20 -8 4z"/>
<path d="M590 2796 c0 -2 8 -10 18 -17 15 -13 16 -12 3 4 -13 16 -21 21 -21
13z"/>
<path d="M3230 2786 c0 -2 7 -7 16 -10 8 -3 12 -2 9 4 -6 10 -25 14 -25 6z"/>
<path d="M3147 2763 c-7 -7 11 -33 23 -33 4 0 11 7 14 16 5 14 4 15 -8 5 -9
-7 -17 -8 -20 -2 -3 5 0 12 6 14 7 3 8 6 2 6 -6 1 -14 -2 -17 -6z"/>
<path d="M3180 2719 c-12 -9 -12 -10 4 -5 14 5 17 3 12 -11 -6 -15 -5 -16 5
-5 18 17 -1 35 -21 21z"/>
<path d="M579 2691 c6 -10 7 -22 3 -26 -4 -5 -1 -5 6 -1 9 5 9 12 2 27 -6 10
-13 19 -16 19 -2 0 0 -8 5 -19z"/>
<path d="M3246 2698 c3 -5 10 -6 15 -3 13 9 11 12 -6 12 -8 0 -12 -4 -9 -9z"/>
<path d="M555 2680 c-3 -5 -1 -10 4 -10 6 0 11 5 11 10 0 6 -2 10 -4 10 -3 0
-8 -4 -11 -10z"/>
<path d="M535 2650 c-4 -6 -11 -8 -16 -5 -5 4 -9 1 -9 -5 0 -7 7 -9 16 -6 12
5 15 2 10 -9 -3 -9 -2 -13 3 -10 6 3 9 14 8 25 -1 23 -3 24 -12 10z"/>
<path d="M3290 2639 c0 -5 5 -7 10 -4 6 3 10 8 10 11 0 2 -4 4 -10 4 -5 0 -10
-5 -10 -11z"/>
<path d="M545 2600 c-3 -5 -1 -10 4 -10 6 0 11 5 11 10 0 6 -2 10 -4 10 -3 0
-8 -4 -11 -10z"/>
<path d="M3276 2587 c3 -10 9 -15 12 -12 3 3 0 11 -7 18 -10 9 -11 8 -5 -6z"/>
<path d="M3250 2581 c0 -5 5 -13 10 -16 6 -3 10 -2 10 4 0 5 -4 13 -10 16 -5
3 -10 2 -10 -4z"/>
<path d="M3306 2582 c-3 -5 1 -9 9 -9 8 0 12 4 9 9 -3 4 -7 8 -9 8 -2 0 -6 -4
-9 -8z"/>
<path d="M481 2553 c-1 -17 16 -25 25 -12 4 7 3 9 -4 5 -5 -3 -13 0 -15 6 -4
9 -6 10 -6 1z"/>
<path d="M3286 2523 c-6 -14 -5 -15 5 -6 7 7 10 15 7 18 -3 3 -9 -2 -12 -12z"/>
<path d="M467 2519 c7 -7 15 -10 18 -7 3 3 -2 9 -12 12 -14 6 -15 5 -6 -5z"/>
<path d="M3330 2525 c0 -5 5 -17 10 -25 5 -8 10 -10 10 -5 0 6 -5 17 -10 25
-5 8 -10 11 -10 5z"/>
<path d="M450 2479 c0 -5 5 -7 10 -4 6 3 10 8 10 11 0 2 -4 4 -10 4 -5 0 -10
-5 -10 -11z"/>
<path d="M475 2470 c-3 -6 1 -7 9 -4 18 7 21 14 7 14 -6 0 -13 -4 -16 -10z"/>
<path d="M410 2460 c0 -5 5 -10 11 -10 5 0 7 5 4 10 -3 6 -8 10 -11 10 -2 0
-4 -4 -4 -10z"/>
<path d="M454 2442 c2 -9 -2 -21 -8 -25 -7 -6 -6 -7 4 -4 8 2 14 10 12 17 -2
8 3 10 13 7 21 -9 19 0 -4 13 -16 8 -19 7 -17 -8z"/>
<path d="M3316 2445 c-3 -8 -1 -15 4 -15 6 0 10 7 10 15 0 8 -2 15 -4 15 -2 0
-6 -7 -10 -15z"/>
<path d="M3366 2422 c-3 -5 1 -9 9 -9 8 0 12 4 9 9 -3 4 -7 8 -9 8 -2 0 -6 -4
-9 -8z"/>
<path d="M416 2402 c-3 -5 1 -9 9 -9 8 0 12 4 9 9 -3 4 -7 8 -9 8 -2 0 -6 -4
-9 -8z"/>
<path d="M366 2382 c-3 -5 1 -9 9 -9 8 0 12 4 9 9 -3 4 -7 8 -9 8 -2 0 -6 -4
-9 -8z"/>
<path d="M440 2365 c0 -8 4 -15 10 -15 5 0 7 7 4 15 -4 8 -8 15 -10 15 -2 0
-4 -7 -4 -15z"/>
<path d="M390 2357 c0 -2 6 -10 14 -16 11 -9 16 -9 22 1 4 7 4 10 -1 6 -4 -4
-14 -3 -22 3 -7 6 -13 9 -13 6z"/>
<path d="M376 2322 c-3 -5 1 -9 9 -9 8 0 12 4 9 9 -3 4 -7 8 -9 8 -2 0 -6 -4
-9 -8z"/>
<path d="M3390 2326 c0 -2 7 -7 16 -10 8 -3 12 -2 9 4 -6 10 -25 14 -25 6z"/>
<path d="M400 2295 c-7 -9 -10 -18 -7 -21 3 -3 10 4 17 15 13 25 8 27 -10 6z"/>
<path d="M353 2273 c0 -9 4 -10 14 -2 7 6 13 12 13 14 0 1 -6 2 -13 2 -8 0
-14 -6 -14 -14z"/>
<path d="M3366 2283 c-3 -3 -1 -13 4 -23 5 -10 6 -21 2 -25 -4 -5 -1 -5 6 -1
9 5 9 12 2 27 -11 20 -1 26 16 9 7 -7 11 -7 11 3 0 13 -30 21 -41 10z"/>
<path d="M3416 2253 c-6 -14 -5 -15 5 -6 7 7 10 15 7 18 -3 3 -9 -2 -12 -12z"/>
<path d="M365 2240 c-3 -6 1 -7 9 -4 18 7 21 14 7 14 -6 0 -13 -4 -16 -10z"/>
<path d="M384 2218 c-4 -7 -4 -10 1 -6 4 4 15 2 24 -5 14 -11 14 -10 2 6 -16
20 -18 21 -27 5z"/>
<path d="M3387 2216 c-4 -10 -1 -13 9 -9 15 6 19 23 5 23 -5 0 -11 -7 -14 -14z"/>
<path d="M3450 2206 c0 -2 7 -7 16 -10 8 -3 12 -2 9 4 -6 10 -25 14 -25 6z"/>
<path d="M334 2179 c-4 -7 -3 -10 3 -6 6 4 16 0 23 -8 15 -18 30 -20 30 -3 0
6 -3 8 -7 5 -3 -4 -14 0 -24 9 -13 12 -19 12 -25 3z"/>
<path d="M396 2143 c-4 -9 -3 -20 2 -25 6 -6 10 1 10 16 0 30 -3 32 -12 9z"/>
<path d="M3388 2153 c7 -3 16 -2 19 1 4 3 -2 6 -13 5 -11 0 -14 -3 -6 -6z"/>
<path d="M3415 2141 c-3 -6 -3 -11 2 -10 20 3 23 -2 12 -23 -11 -22 -11 -22 7
-5 17 16 17 18 2 33 -11 11 -18 13 -23 5z"/>
<path d="M374 2112 c3 -5 0 -13 -6 -15 -9 -4 -10 -6 -1 -6 17 -1 25 16 12 25
-7 4 -9 3 -5 -4z"/>
<path d="M335 2100 c3 -5 8 -10 11 -10 2 0 4 5 4 10 0 6 -5 10 -11 10 -5 0 -7
-4 -4 -10z"/>
<path d="M306 2082 c-3 -5 1 -9 9 -9 8 0 12 4 9 9 -3 4 -7 8 -9 8 -2 0 -6 -4
-9 -8z"/>
<path d="M3427 2050 c3 -11 9 -20 15 -20 5 0 4 9 -2 20 -6 11 -12 20 -14 20
-2 0 -2 -9 1 -20z"/>
<path d="M340 2000 c0 -5 5 -10 11 -10 5 0 7 5 4 10 -3 6 -8 10 -11 10 -2 0
-4 -4 -4 -10z"/>
<path d="M369 1988 c-4 -15 -6 -50 -3 -40 3 6 11 9 17 5 8 -5 8 -2 0 9 -7 8
-10 18 -6 21 3 4 3 7 0 7 -4 0 -7 -1 -8 -2z"/>
<path d="M3430 1981 c0 -6 4 -12 8 -15 5 -3 9 1 9 9 0 8 -4 15 -9 15 -4 0 -8
-4 -8 -9z"/>
<path d="M3466 1978 c3 -5 10 -6 15 -3 13 9 11 12 -6 12 -8 0 -12 -4 -9 -9z"/>
<path d="M3432 1934 c-7 -8 -8 -14 -3 -14 10 0 25 19 20 25 -2 1 -10 -3 -17
-11z"/>
<path d="M333 1913 c0 -9 4 -10 14 -2 7 6 13 12 13 14 0 1 -6 2 -13 2 -8 0
-14 -6 -14 -14z"/>
<path d="M370 1920 c0 -5 5 -10 10 -10 6 0 10 5 10 10 0 6 -4 10 -10 10 -5 0
-10 -4 -10 -10z"/>
<path d="M3460 1920 c-9 -6 -10 -10 -3 -10 6 0 15 5 18 10 8 12 4 12 -15 0z"/>
<path d="M336 1875 c-9 -26 -7 -32 5 -12 6 10 9 21 6 23 -2 3 -7 -2 -11 -11z"/>
<path d="M3420 1865 c0 -7 30 -13 34 -7 3 4 -4 9 -15 9 -10 1 -19 0 -19 -2z"/>
<path d="M358 1843 c7 -3 16 -2 19 1 4 3 -2 6 -13 5 -11 0 -14 -3 -6 -6z"/>
<path d="M350 1798 c0 -4 4 -8 9 -8 6 0 12 4 15 8 3 5 -1 9 -9 9 -8 0 -15 -4
-15 -9z"/>
<path d="M3420 1799 c0 -5 5 -7 10 -4 6 3 10 8 10 11 0 2 -4 4 -10 4 -5 0 -10
-5 -10 -11z"/>
<path d="M319 1773 c-13 -16 -12 -17 4 -4 9 7 17 15 17 17 0 8 -8 3 -21 -13z"/>
<path d="M362 1760 c-13 -17 -17 -27 -8 -24 11 4 41 54 33 54 -2 0 -13 -13
-25 -30z"/>
<path d="M3443 1758 c-10 -17 -12 -59 -2 -53 4 3 6 13 4 23 -1 9 2 23 8 30 5
6 7 12 4 12 -3 0 -9 -6 -14 -12z"/>
<path d="M373 1685 c0 -8 4 -12 9 -9 5 3 6 10 3 15 -9 13 -12 11 -12 -6z"/>
<path d="M390 1660 c0 -5 5 -10 10 -10 6 0 10 5 10 10 0 6 -4 10 -10 10 -5 0
-10 -4 -10 -10z"/>
<path d="M370 1652 c0 -7 -4 -11 -9 -8 -11 7 -8 -21 4 -31 4 -4 5 -3 1 4 -3 6
-2 14 4 18 5 3 10 1 10 -6 0 -7 3 -10 6 -6 3 3 1 14 -5 24 -6 11 -11 13 -11 5z"/>
<path d="M3401 1644 c0 -11 3 -14 6 -6 3 7 2 16 -1 19 -3 4 -6 -2 -5 -13z"/>
<path d="M3388 1618 c5 -5 16 -8 23 -6 8 3 3 7 -10 11 -17 4 -21 3 -13 -5z"/>
<path d="M3433 1605 c0 -8 4 -12 9 -9 5 3 6 10 3 15 -9 13 -12 11 -12 -6z"/>
<path d="M3391 1571 c-8 -5 -9 -11 -3 -15 5 -3 12 1 16 9 6 17 6 18 -13 6z"/>
<path d="M3415 1559 c-4 -6 -5 -12 -2 -15 2 -3 7 2 10 11 7 17 1 20 -8 4z"/>
<path d="M425 1480 c3 -5 11 -10 16 -10 6 0 7 5 4 10 -3 6 -11 10 -16 10 -6 0
-7 -4 -4 -10z"/>
<path d="M3370 1480 c0 -5 5 -10 10 -10 6 0 10 5 10 10 0 6 -4 10 -10 10 -5 0
-10 -4 -10 -10z"/>
<path d="M413 1463 c4 -3 1 -13 -6 -22 -11 -14 -10 -14 5 -2 16 12 16 31 1 31
-4 0 -3 -3 0 -7z"/>
<path d="M3345 1449 c-4 -6 -4 -13 -1 -16 3 -4 6 0 6 7 0 9 7 7 21 -6 22 -19
22 -19 8 4 -15 24 -24 27 -34 11z"/>
<path d="M375 1440 c-3 -5 -1 -10 4 -10 6 0 11 5 11 10 0 6 -2 10 -4 10 -3 0
-8 -4 -11 -10z"/>
<path d="M430 1430 c-6 -11 -8 -20 -6 -20 3 0 10 9 16 20 6 11 8 20 6 20 -3 0
-10 -9 -16 -20z"/>
<path d="M3348 1413 c6 -2 10 -8 7 -13 -7 -11 22 -7 32 5 4 4 3 5 -4 1 -6 -3
-14 -2 -18 4 -3 5 -12 10 -18 9 -9 0 -8 -2 1 -6z"/>
<path d="M413 1376 c-3 -5 -1 -6 5 -2 6 3 16 -2 22 -11 10 -16 11 -16 6 -1 -3
9 0 19 7 21 7 3 2 4 -11 4 -13 -1 -26 -6 -29 -11z"/>
<path d="M470 1370 c0 -5 5 -10 11 -10 5 0 7 5 4 10 -3 6 -8 10 -11 10 -2 0
-4 -4 -4 -10z"/>
<path d="M3310 1360 c0 -5 5 -10 11 -10 5 0 7 5 4 10 -3 6 -8 10 -11 10 -2 0
-4 -4 -4 -10z"/>
<path d="M485 1340 c-3 -5 -1 -10 4 -10 6 0 11 5 11 10 0 6 -2 10 -4 10 -3 0
-8 -4 -11 -10z"/>
<path d="M3370 1339 c0 -5 5 -7 10 -4 6 3 10 8 10 11 0 2 -4 4 -10 4 -5 0 -10
-5 -10 -11z"/>
<path d="M473 1305 c0 -7 6 -11 14 -8 7 3 13 6 13 8 0 2 -6 5 -13 8 -8 3 -14
-1 -14 -8z"/>
<path d="M3286 1291 c-3 -4 1 -17 10 -27 14 -18 15 -18 5 3 -8 16 -8 23 2 26
9 4 9 6 0 6 -6 1 -14 -3 -17 -8z"/>
<path d="M439 1233 c-13 -16 -12 -17 4 -4 9 7 17 15 17 17 0 8 -8 3 -21 -13z"/>
<path d="M3254 1228 c-15 -19 -16 -20 -1 -9 14 11 20 11 35 0 15 -12 16 -12 5
2 -7 9 -10 19 -6 22 3 4 2 7 -4 7 -5 0 -18 -10 -29 -22z"/>
<path d="M3356 1233 c-6 -14 -5 -15 5 -6 7 7 10 15 7 18 -3 3 -9 -2 -12 -12z"/>
<path d="M536 1177 c3 -10 9 -15 12 -12 3 3 0 11 -7 18 -10 9 -11 8 -5 -6z"/>
<path d="M566 1165 c-3 -8 -1 -15 4 -15 6 0 10 7 10 15 0 8 -2 15 -4 15 -2 0
-6 -7 -10 -15z"/>
<path d="M515 1160 c-3 -5 -1 -10 4 -10 6 0 11 5 11 10 0 6 -2 10 -4 10 -3 0
-8 -4 -11 -10z"/>
<path d="M3215 1149 c-4 -6 -5 -12 -2 -15 2 -3 7 2 10 11 7 17 1 20 -8 4z"/>
<path d="M547 1139 c7 -7 15 -10 18 -7 3 3 -2 9 -12 12 -14 6 -15 5 -6 -5z"/>
<path d="M3240 1140 c-12 -7 -12 -11 -2 -20 6 -5 10 -7 7 -4 -3 4 0 13 6 21
13 15 10 16 -11 3z"/>
<path d="M577 1126 c-4 -10 -3 -15 2 -12 5 3 11 -1 15 -9 3 -8 11 -15 18 -15
9 0 9 3 2 8 -6 4 -15 15 -21 26 -9 16 -11 17 -16 2z"/>
<path d="M535 1100 c3 -5 8 -10 11 -10 2 0 4 5 4 10 0 6 -5 10 -11 10 -5 0 -7
-4 -4 -10z"/>
<path d="M3172 1078 c2 -6 10 -13 16 -14 7 -1 8 0 2 3 -5 2 -8 9 -4 14 3 5 0
9 -6 9 -7 0 -10 -5 -8 -12z"/>
<path d="M630 1020 c0 -5 7 -7 15 -4 8 4 15 8 15 10 0 2 -7 4 -15 4 -8 0 -15
-4 -15 -10z"/>
<path d="M3200 1020 c-12 -7 -10 -9 7 -7 12 0 19 5 17 9 -6 10 -6 10 -24 -2z"/>
<path d="M655 1000 c3 -5 8 -10 11 -10 2 0 4 5 4 10 0 6 -5 10 -11 10 -5 0 -7
-4 -4 -10z"/>
<path d="M3133 975 c-3 -9 -3 -18 -1 -21 3 -3 8 4 11 16 6 23 -1 27 -10 5z"/>
<path d="M3170 979 c0 -5 5 -7 10 -4 6 3 10 8 10 11 0 2 -4 4 -10 4 -5 0 -10
-5 -10 -11z"/>
<path d="M625 960 c-3 -6 1 -7 9 -4 18 7 21 14 7 14 -6 0 -13 -4 -16 -10z"/>
<path d="M3075 940 c3 -5 8 -10 11 -10 2 0 4 5 4 10 0 6 -5 10 -11 10 -5 0 -7
-4 -4 -10z"/>
<path d="M700 936 c0 -2 11 -6 25 -8 13 -3 22 -1 19 3 -5 9 -44 13 -44 5z"/>
<path d="M3130 936 c0 -2 8 -10 18 -17 15 -13 16 -12 3 4 -13 16 -21 21 -21
13z"/>
<path d="M656 893 c-6 -14 -5 -15 5 -6 7 7 10 15 7 18 -3 3 -9 -2 -12 -12z"/>
<path d="M736 894 c-6 -15 -4 -15 11 -3 15 12 16 12 9 -6 -4 -11 -4 -16 0 -12
4 4 12 -1 19 -10 9 -13 14 -13 20 -3 5 8 4 11 -2 7 -6 -4 -15 5 -21 18 -13 29
-27 32 -36 9z"/>
<path d="M3014 863 c4 -7 2 -13 -3 -13 -15 0 -14 -17 2 -23 15 -6 17 27 2 40
-4 5 -5 2 -1 -4z"/>
<path d="M754 846 c1 -8 5 -18 8 -22 4 -3 5 1 4 10 -1 8 -5 18 -8 22 -4 3 -5
-1 -4 -10z"/>
<path d="M3053 845 c0 -8 4 -12 9 -9 5 3 6 10 3 15 -9 13 -12 11 -12 -6z"/>
<path d="M835 809 c-5 -7 -4 -10 3 -5 6 3 18 -4 26 -16 9 -12 18 -19 21 -17 3
3 -6 16 -19 28 -18 17 -26 19 -31 10z"/>
<path d="M2970 801 c0 -9 38 -12 44 -3 2 4 -7 8 -20 8 -13 1 -24 -1 -24 -5z"/>
<path d="M830 786 c0 -2 7 -7 16 -10 8 -3 12 -2 9 4 -6 10 -25 14 -25 6z"/>
<path d="M2924 770 c0 -11 6 -22 12 -24 7 -3 10 3 7 15 -7 26 -19 32 -19 9z"/>
<path d="M900 749 c0 -5 -4 -8 -9 -4 -5 3 -12 1 -15 -4 -4 -5 2 -8 11 -7 15 3
33 26 19 26 -3 0 -6 -5 -6 -11z"/>
<path d="M816 738 c3 -5 10 -6 15 -3 13 9 11 12 -6 12 -8 0 -12 -4 -9 -9z"/>
<path d="M900 719 c-13 -9 -12 -10 3 -5 21 7 49 -3 42 -15 -3 -4 4 -6 16 -4
15 3 19 0 15 -11 -3 -9 -1 -12 4 -9 6 3 10 1 10 -6 0 -7 3 -10 6 -7 3 4 0 16
-6 28 -6 12 -14 19 -17 16 -3 -3 -15 1 -27 9 -24 18 -27 18 -46 4z"/>
<path d="M2870 718 c0 -11 12 -10 30 2 12 7 10 9 -8 7 -12 0 -22 -5 -22 -9z"/>
<path d="M2817 703 c-4 -3 -7 -13 -7 -22 1 -13 3 -13 11 2 11 19 8 33 -4 20z"/>
<path d="M2840 706 c0 -2 7 -7 16 -10 8 -3 12 -2 9 4 -6 10 -25 14 -25 6z"/>
<path d="M913 685 c0 -8 4 -15 9 -15 4 0 8 4 8 9 0 6 -4 12 -8 15 -5 3 -9 -1
-9 -9z"/>
<path d="M2839 683 c0 -5 -2 -16 -4 -26 -2 -11 -1 -16 3 -13 8 8 14 46 7 46
-3 0 -5 -3 -6 -7z"/>
<path d="M2790 650 c-9 -6 -10 -10 -3 -10 6 0 15 5 18 10 8 12 4 12 -15 0z"/>
<path d="M1005 640 c3 -5 8 -10 11 -10 2 0 4 5 4 10 0 6 -5 10 -11 10 -5 0 -7
-4 -4 -10z"/>
<path d="M2810 619 c0 -5 5 -7 10 -4 6 3 10 8 10 11 0 2 -4 4 -10 4 -5 0 -10
-5 -10 -11z"/>
<path d="M1054 599 c0 -12 4 -15 10 -9 6 6 14 3 23 -8 13 -15 13 -15 4 4 -14
29 -37 37 -37 13z"/>
<path d="M2749 603 c-13 -16 -12 -17 4 -4 16 13 21 21 13 21 -2 0 -10 -8 -17
-17z"/>
<path d="M1120 585 c-7 -9 -8 -15 -2 -15 5 0 12 7 16 15 3 8 4 15 2 15 -2 0
-9 -7 -16 -15z"/>
<path d="M2704 584 c-18 -14 -18 -15 4 -4 12 6 22 13 22 15 0 8 -5 6 -26 -11z"/>
<path d="M1141 573 c-1 -6 -4 -20 -7 -30 -5 -17 -5 -17 6 0 6 10 9 23 6 30 -3
9 -5 9 -5 0z"/>
<path d="M2735 571 c-3 -5 -2 -12 3 -15 5 -3 9 1 9 9 0 17 -3 19 -12 6z"/>
<path d="M1067 559 c7 -7 15 -10 18 -7 3 3 -2 9 -12 12 -14 6 -15 5 -6 -5z"/>
<path d="M1174 558 c-4 -7 -3 -8 4 -4 7 4 12 2 12 -4 0 -6 5 -8 10 -5 6 3 11
1 11 -4 3 -26 4 -30 11 -36 3 -4 5 1 3 12 -2 10 -4 21 -4 25 -2 15 -40 28 -47
16z"/>
<path d="M2650 566 c0 -2 7 -7 16 -10 8 -3 12 -2 9 4 -6 10 -25 14 -25 6z"/>
<path d="M1153 527 c0 -7 11 -13 23 -13 20 0 25 11 6 11 -4 0 -12 3 -18 7 -6
4 -11 1 -11 -5z"/>
<path d="M2675 529 c-4 -6 -5 -12 -2 -15 2 -3 7 2 10 11 7 17 1 20 -8 4z"/>
<path d="M1250 520 c-9 -6 -10 -10 -3 -10 6 0 15 5 18 10 8 12 4 12 -15 0z"/>
<path d="M2550 510 c-6 -11 -9 -20 -8 -20 2 0 11 9 21 20 9 11 13 20 7 20 -5
0 -14 -9 -20 -20z"/>
<path d="M1290 491 c0 -7 -4 -10 -9 -7 -11 7 -9 -21 2 -29 4 -3 5 -2 2 2 -3 3
0 12 7 20 6 7 8 16 4 20 -3 3 -6 1 -6 -6z"/>
<path d="M1323 494 c9 -3 15 -10 12 -15 -4 -5 -1 -9 5 -9 19 0 5 25 -16 27
-16 2 -16 1 -1 -3z"/>
<path d="M2454 492 c3 -6 -2 -13 -11 -15 -16 -4 -16 -5 -1 -6 21 -1 32 15 17
25 -7 4 -9 3 -5 -4z"/>
<path d="M2485 483 c-11 -25 -15 -46 -7 -38 4 4 7 10 7 13 0 4 4 13 9 20 4 7
6 15 3 18 -2 3 -8 -3 -12 -13z"/>
<path d="M1396 467 c3 -10 9 -15 12 -12 3 3 0 11 -7 18 -10 9 -11 8 -5 -6z"/>
<path d="M2365 459 c-4 -6 -5 -12 -2 -15 2 -3 7 2 10 11 7 17 1 20 -8 4z"/>
<path d="M2505 459 c-3 -4 2 -6 10 -5 21 3 28 13 10 13 -9 0 -18 -4 -20 -8z"/>
<path d="M1355 438 c1 -10 5 -21 9 -25 4 -5 6 -1 4 7 -1 8 2 14 8 13 6 -1 11
4 11 10 0 7 -8 13 -17 13 -9 0 -16 -8 -15 -18z"/>
<path d="M2328 441 c-7 -10 -17 -19 -23 -19 -5 0 -11 -6 -13 -14 -2 -9 -1 -9
5 -2 4 6 16 10 25 9 11 -2 15 2 11 13 -4 9 -2 13 4 9 5 -3 10 0 10 8 0 19 -3
19 -19 -4z"/>
<path d="M2385 451 c-3 -5 -1 -12 5 -16 6 -4 8 -10 5 -15 -3 -5 -1 -11 4 -14
8 -5 8 15 1 34 -1 3 -2 8 -1 13 1 10 -7 9 -14 -2z"/>
<path d="M1207 439 c7 -7 15 -10 18 -7 3 3 -2 9 -12 12 -14 6 -15 5 -6 -5z"/>
<path d="M1420 446 c0 -2 7 -6 15 -10 8 -3 15 -1 15 4 0 6 -7 10 -15 10 -8 0
-15 -2 -15 -4z"/>
<path d="M2453 425 c0 -8 4 -12 9 -9 5 3 6 10 3 15 -9 13 -12 11 -12 -6z"/>
<path d="M1395 421 c-3 -5 -2 -12 3 -15 5 -3 9 1 9 9 0 17 -3 19 -12 6z"/>
<path d="M2360 420 c-9 -6 -10 -10 -3 -10 6 0 15 5 18 10 8 12 4 12 -15 0z"/>
<path d="M1470 409 c0 -5 5 -7 10 -4 6 3 10 8 10 11 0 2 -4 4 -10 4 -5 0 -10
-5 -10 -11z"/>
<path d="M1501 397 c-13 -21 -12 -21 5 -5 10 10 16 20 13 22 -3 3 -11 -5 -18
-17z"/>
<path d="M1550 405 c0 -8 4 -15 10 -15 5 0 7 7 4 15 -4 8 -8 15 -10 15 -2 0
-4 -7 -4 -15z"/>
<path d="M1576 409 c3 -5 10 -7 15 -4 5 4 9 2 9 -4 0 -5 -8 -15 -17 -20 -10
-6 -13 -11 -7 -11 15 0 39 29 30 37 -10 11 -37 12 -30 2z"/>
<path d="M2155 390 c21 -24 26 -25 19 -6 -3 8 -13 17 -22 21 -13 5 -13 2 3
-15z"/>
<path d="M2255 400 c-3 -5 -1 -10 4 -10 6 0 11 5 11 10 0 6 -2 10 -4 10 -3 0
-8 -4 -11 -10z"/>
<path d="M1817 393 c-4 -3 -7 -11 -7 -17 0 -6 5 -5 12 2 6 6 9 14 7 17 -3 3
-9 2 -12 -2z"/>
<path d="M1450 379 c0 -5 5 -7 10 -4 6 3 10 8 10 11 0 2 -4 4 -10 4 -5 0 -10
-5 -10 -11z"/>
<path d="M1670 380 c0 -5 5 -10 10 -10 6 0 10 5 10 10 0 6 -4 10 -10 10 -5 0
-10 -4 -10 -10z"/>
<path d="M1925 382 c-5 -4 -17 -16 -25 -27 -12 -17 -11 -17 10 2 24 21 54 19
50 -3 -1 -5 4 -10 12 -12 9 -2 8 0 -2 7 -8 6 -11 11 -6 11 5 0 3 7 -4 15 -14
17 -20 18 -35 7z"/>
<path d="M1974 382 c4 -3 14 -7 22 -8 9 -1 13 0 10 4 -4 3 -14 7 -22 8 -9 1
-13 0 -10 -4z"/>
<path d="M2020 381 c0 -6 9 -8 19 -6 11 2 22 -3 25 -11 6 -16 26 -19 26 -3 0
5 -4 8 -9 5 -5 -4 -11 -1 -13 6 -5 14 -48 22 -48 9z"/>
<path d="M2295 380 c3 -5 8 -10 11 -10 2 0 4 5 4 10 0 6 -5 10 -11 10 -5 0 -7
-4 -4 -10z"/>
<path d="M1704 364 c-18 -14 -18 -15 4 -4 12 6 22 13 22 15 0 8 -5 6 -26 -11z"/>
<path d="M2230 376 c0 -2 8 -10 18 -17 15 -13 16 -12 3 4 -13 16 -21 21 -21
13z"/>
<path d="M1610 359 c0 -5 5 -7 10 -4 6 3 10 8 10 11 0 2 -4 4 -10 4 -5 0 -10
-5 -10 -11z"/>
<path d="M1860 359 c0 -5 5 -7 10 -4 6 3 10 8 10 11 0 2 -4 4 -10 4 -5 0 -10
-5 -10 -11z"/>
<path d="M1995 351 c-3 -5 -2 -12 3 -15 5 -3 9 1 9 9 0 17 -3 19 -12 6z"/>
</g>
</svg>
